<svg xmlns="http://www.w3.org/2000/svg" xmlns:xlink="http://www.w3.org/1999/xlink" width="256" zoomAndPan="magnify" viewBox="0 0 375 374.999991" height="256" preserveAspectRatio="xMidYMid meet" version="1.0">
    <defs>
        <g />
        <clipPath id="38e8318cf3">
            <path d="M 100.625 64 L 251 64 L 251 214 L 100.625 214 Z M 100.625 64 " clip-rule="nonzero" />
        </clipPath>
        <clipPath id="5b2888186d">
            <path d="M 100.625 64 L 218 64 L 218 182 L 100.625 182 Z M 100.625 64 " clip-rule="nonzero" />
        </clipPath>
        <clipPath id="1fc47575f1">
            <path d="M 218 182 L 273 182 L 273 236.5 L 218 236.5 Z M 218 182 " clip-rule="nonzero" />
        </clipPath>
    </defs>
    <rect x="-37.5" width="450" fill="#ffffff" y="-37.499999" height="449.999989" fill-opacity="1" />
    <rect x="-37.5" width="450" fill="#ffffff" y="-37.499999" height="449.999989" fill-opacity="1" />
    <path fill="#cfecf9" d="M 175.480469 194.164062 C 174.421875 194.164062 173.367188 194.132812 172.3125 194.070312 C 171.257812 194.011719 170.207031 193.921875 169.15625 193.800781 C 168.109375 193.679688 167.0625 193.53125 166.023438 193.347656 C 164.980469 193.167969 163.949219 192.957031 162.917969 192.71875 C 161.890625 192.480469 160.871094 192.210938 159.855469 191.910156 C 158.84375 191.613281 157.839844 191.285156 156.84375 190.929688 C 155.851562 190.574219 154.867188 190.191406 153.894531 189.777344 C 152.921875 189.367188 151.960938 188.925781 151.015625 188.460938 C 150.066406 187.992188 149.132812 187.5 148.214844 186.980469 C 147.296875 186.457031 146.394531 185.914062 145.503906 185.339844 C 144.617188 184.769531 143.746094 184.171875 142.894531 183.546875 C 142.039062 182.925781 141.203125 182.28125 140.386719 181.609375 C 139.570312 180.941406 138.773438 180.246094 138 179.53125 C 137.222656 178.816406 136.464844 178.078125 135.730469 177.320312 C 134.996094 176.5625 134.285156 175.78125 133.59375 174.984375 C 132.90625 174.183594 132.238281 173.363281 131.59375 172.527344 C 130.953125 171.6875 130.332031 170.832031 129.738281 169.960938 C 129.144531 169.085938 128.578125 168.195312 128.035156 167.292969 C 127.492188 166.386719 126.972656 165.464844 126.484375 164.527344 C 125.992188 163.59375 125.53125 162.644531 125.09375 161.683594 C 124.660156 160.722656 124.25 159.746094 123.871094 158.761719 C 123.492188 157.777344 123.136719 156.78125 122.816406 155.777344 C 122.492188 154.769531 122.199219 153.757812 121.933594 152.734375 C 121.667969 151.710938 121.433594 150.683594 121.226562 149.648438 C 121.019531 148.609375 120.84375 147.570312 120.699219 146.523438 C 120.550781 145.476562 120.433594 144.429688 120.347656 143.375 C 120.261719 142.324219 120.207031 141.269531 120.179688 140.214844 C 120.152344 139.15625 120.15625 138.101562 120.191406 137.046875 C 120.226562 135.992188 120.292969 134.9375 120.386719 133.886719 C 120.480469 132.832031 120.605469 131.785156 120.761719 130.742188 C 120.914062 129.695312 121.101562 128.65625 121.316406 127.621094 C 121.527344 126.585938 121.773438 125.5625 122.046875 124.539062 C 122.320312 123.519531 122.621094 122.507812 122.953125 121.507812 C 123.285156 120.503906 123.644531 119.511719 124.03125 118.527344 C 124.421875 117.546875 124.835938 116.574219 125.28125 115.617188 C 125.722656 114.660156 126.195312 113.714844 126.691406 112.78125 C 127.191406 111.851562 127.714844 110.933594 128.265625 110.03125 C 128.816406 109.132812 129.390625 108.246094 129.992188 107.378906 C 130.59375 106.507812 131.21875 105.660156 131.867188 104.828125 C 132.515625 103.992188 133.191406 103.179688 133.886719 102.386719 C 134.582031 101.59375 135.300781 100.820312 136.042969 100.066406 C 136.78125 99.3125 137.542969 98.582031 138.328125 97.871094 C 139.109375 97.164062 139.910156 96.476562 140.734375 95.8125 C 141.554688 95.148438 142.394531 94.511719 143.253906 93.894531 C 144.113281 93.28125 144.988281 92.691406 145.878906 92.125 C 146.773438 91.558594 147.679688 91.019531 148.601562 90.507812 C 149.527344 89.996094 150.464844 89.507812 151.414062 89.046875 C 152.363281 88.589844 153.328125 88.15625 154.304688 87.753906 C 155.28125 87.347656 156.265625 86.972656 157.261719 86.625 C 158.261719 86.277344 159.265625 85.957031 160.28125 85.667969 C 161.296875 85.378906 162.320312 85.117188 163.351562 84.886719 C 164.382812 84.65625 165.417969 84.453125 166.460938 84.28125 C 167.503906 84.109375 168.546875 83.96875 169.597656 83.855469 C 170.648438 83.742188 171.703125 83.660156 172.757812 83.609375 C 173.8125 83.558594 174.867188 83.535156 175.921875 83.542969 C 176.980469 83.550781 178.035156 83.589844 179.089844 83.660156 C 180.140625 83.730469 181.191406 83.828125 182.242188 83.957031 C 183.289062 84.085938 184.332031 84.246094 185.371094 84.433594 C 186.410156 84.625 187.445312 84.84375 188.472656 85.089844 C 189.496094 85.339844 190.515625 85.617188 191.527344 85.921875 C 192.539062 86.230469 193.539062 86.566406 194.53125 86.929688 C 195.519531 87.292969 196.5 87.683594 197.46875 88.105469 C 198.441406 88.523438 199.394531 88.972656 200.339844 89.445312 C 201.28125 89.921875 202.210938 90.421875 203.125 90.953125 C 204.042969 91.480469 204.941406 92.035156 205.824219 92.613281 C 206.707031 93.191406 207.570312 93.796875 208.417969 94.425781 C 209.269531 95.054688 210.097656 95.707031 210.910156 96.382812 C 211.71875 97.0625 212.511719 97.761719 213.28125 98.480469 C 214.050781 99.203125 214.800781 99.949219 215.53125 100.710938 C 216.257812 101.476562 216.964844 102.261719 217.648438 103.066406 C 218.332031 103.875 218.992188 104.699219 219.625 105.539062 C 220.261719 106.382812 220.875 107.246094 221.460938 108.121094 C 222.046875 109 222.609375 109.894531 223.144531 110.804688 C 223.679688 111.714844 224.1875 112.640625 224.671875 113.578125 C 225.152344 114.519531 225.609375 115.472656 226.039062 116.4375 C 226.464844 117.402344 226.867188 118.378906 227.238281 119.367188 C 227.609375 120.355469 227.953125 121.355469 228.269531 122.363281 C 228.582031 123.371094 228.867188 124.386719 229.125 125.414062 C 229.382812 126.4375 229.609375 127.46875 229.804688 128.503906 C 230.003906 129.542969 230.171875 130.585938 230.308594 131.632812 C 230.449219 132.679688 230.554688 133.730469 230.632812 134.78125 C 230.710938 135.835938 230.757812 136.890625 230.777344 137.945312 C 230.792969 139.003906 230.78125 140.058594 230.738281 141.113281 C 230.695312 142.167969 230.621094 143.222656 230.515625 144.273438 C 230.414062 145.324219 230.28125 146.371094 230.117188 147.414062 C 229.953125 148.457031 229.757812 149.496094 229.535156 150.527344 C 229.3125 151.5625 229.0625 152.585938 228.777344 153.605469 C 228.496094 154.621094 228.1875 155.628906 227.847656 156.632812 C 227.507812 157.632812 227.140625 158.621094 226.742188 159.601562 C 226.347656 160.578125 225.925781 161.546875 225.472656 162.5 C 225.019531 163.453125 224.542969 164.394531 224.035156 165.324219 C 223.53125 166.25 223 167.164062 222.441406 168.058594 C 221.882812 168.957031 221.300781 169.835938 220.691406 170.699219 C 220.085938 171.5625 219.453125 172.410156 218.796875 173.238281 C 218.140625 174.0625 217.460938 174.871094 216.757812 175.660156 C 216.054688 176.449219 215.328125 177.214844 214.582031 177.960938 C 212.019531 180.539062 209.230469 182.835938 206.214844 184.859375 C 203.195312 186.882812 200.007812 188.589844 196.652344 189.980469 C 193.296875 191.371094 189.835938 192.417969 186.273438 193.121094 C 182.710938 193.824219 179.113281 194.171875 175.480469 194.164062 Z M 175.480469 194.164062 " fill-opacity="1" fill-rule="nonzero" />
    <path fill="#e6f9ff" d="M 216.75 102.050781 C 216.050781 101.269531 215.328125 100.503906 214.582031 99.753906 C 213.300781 98.472656 211.960938 97.257812 210.5625 96.109375 C 209.160156 94.960938 207.707031 93.882812 206.203125 92.878906 C 204.695312 91.871094 203.144531 90.941406 201.546875 90.085938 C 199.949219 89.234375 198.316406 88.460938 196.640625 87.765625 C 194.96875 87.074219 193.265625 86.464844 191.53125 85.9375 C 189.796875 85.414062 188.042969 84.972656 186.265625 84.621094 C 184.492188 84.265625 182.703125 84 180.898438 83.824219 C 179.097656 83.648438 177.289062 83.558594 175.480469 83.558594 C 173.667969 83.558594 171.859375 83.648438 170.058594 83.824219 C 168.253906 84 166.464844 84.265625 164.691406 84.621094 C 162.914062 84.972656 161.160156 85.414062 159.425781 85.9375 C 157.691406 86.464844 155.988281 87.074219 154.316406 87.765625 C 152.640625 88.460938 151.007812 89.234375 149.410156 90.085938 C 147.8125 90.941406 146.261719 91.871094 144.753906 92.878906 C 143.25 93.882812 141.796875 94.960938 140.394531 96.109375 C 138.996094 97.257812 137.65625 98.472656 136.375 99.753906 C 135.09375 101.035156 133.878906 102.375 132.730469 103.777344 C 131.582031 105.175781 130.503906 106.628906 129.496094 108.136719 C 128.492188 109.640625 127.5625 111.191406 126.707031 112.789062 C 125.855469 114.386719 125.082031 116.023438 124.386719 117.695312 C 123.695312 119.371094 123.085938 121.074219 122.558594 122.804688 C 122.03125 124.539062 121.59375 126.292969 121.238281 128.070312 C 120.886719 129.847656 120.621094 131.636719 120.445312 133.4375 C 120.265625 135.242188 120.175781 137.046875 120.175781 138.859375 C 120.175781 140.671875 120.265625 142.476562 120.445312 144.277344 C 120.621094 146.082031 120.886719 147.871094 121.238281 149.648438 C 121.59375 151.425781 122.03125 153.179688 122.558594 154.910156 C 123.085938 156.644531 123.695312 158.347656 124.386719 160.023438 C 125.082031 161.695312 125.855469 163.332031 126.707031 164.925781 C 127.5625 166.523438 128.492188 168.078125 129.496094 169.582031 C 130.503906 171.089844 131.582031 172.542969 132.730469 173.941406 C 133.878906 175.339844 135.09375 176.683594 136.375 177.960938 C 137.304688 178.890625 138.261719 179.78125 139.242188 180.636719 C 179.277344 174.140625 210.800781 142.265625 216.75 102.050781 Z M 216.75 102.050781 " fill-opacity="1" fill-rule="nonzero" />
    <g clip-path="url(#38e8318cf3)">
        <path fill="#ff6a00" d="M 175.480469 64.039062 C 134.15625 64.039062 100.65625 97.535156 100.65625 138.859375 C 100.65625 180.179688 134.15625 213.683594 175.480469 213.683594 C 216.800781 213.683594 250.304688 180.183594 250.304688 138.859375 C 250.304688 97.535156 216.804688 64.039062 175.480469 64.039062 Z M 214.582031 177.960938 C 213.835938 178.710938 213.070312 179.433594 212.28125 180.136719 C 211.492188 180.839844 210.683594 181.519531 209.855469 182.175781 C 209.03125 182.832031 208.183594 183.464844 207.320312 184.070312 C 206.457031 184.679688 205.578125 185.261719 204.683594 185.820312 C 203.785156 186.375 202.875 186.90625 201.945312 187.414062 C 201.019531 187.917969 200.078125 188.398438 199.125 188.847656 C 198.167969 189.300781 197.203125 189.722656 196.222656 190.117188 C 195.246094 190.515625 194.253906 190.882812 193.253906 191.222656 C 192.253906 191.5625 191.246094 191.871094 190.230469 192.152344 C 189.210938 192.433594 188.1875 192.6875 187.15625 192.910156 C 186.121094 193.132812 185.085938 193.324219 184.042969 193.488281 C 183 193.652344 181.953125 193.785156 180.902344 193.890625 C 179.851562 193.992188 178.796875 194.066406 177.742188 194.109375 C 176.6875 194.152344 175.632812 194.164062 174.578125 194.148438 C 173.519531 194.128906 172.464844 194.082031 171.414062 194.003906 C 170.359375 193.925781 169.308594 193.820312 168.261719 193.679688 C 167.214844 193.542969 166.175781 193.375 165.136719 193.179688 C 164.101562 192.980469 163.070312 192.753906 162.046875 192.496094 C 161.019531 192.242188 160.003906 191.953125 158.996094 191.640625 C 157.988281 191.324219 156.992188 190.980469 156.003906 190.609375 C 155.015625 190.238281 154.039062 189.835938 153.074219 189.410156 C 152.109375 188.980469 151.15625 188.527344 150.214844 188.042969 C 149.277344 187.5625 148.351562 187.050781 147.441406 186.515625 C 146.53125 185.980469 145.640625 185.421875 144.761719 184.832031 C 143.882812 184.246094 143.023438 183.636719 142.179688 183 C 141.335938 182.363281 140.511719 181.703125 139.707031 181.019531 C 138.902344 180.339844 138.117188 179.632812 137.351562 178.902344 C 136.589844 178.175781 135.84375 177.425781 135.125 176.65625 C 134.402344 175.886719 133.703125 175.09375 133.027344 174.285156 C 132.351562 173.472656 131.699219 172.644531 131.070312 171.796875 C 130.441406 170.949219 129.835938 170.082031 129.257812 169.199219 C 128.675781 168.316406 128.125 167.417969 127.59375 166.503906 C 127.066406 165.589844 126.566406 164.660156 126.089844 163.71875 C 125.617188 162.773438 125.167969 161.816406 124.75 160.847656 C 124.328125 159.878906 123.9375 158.902344 123.574219 157.910156 C 123.210938 156.917969 122.875 155.917969 122.570312 154.90625 C 122.261719 153.898438 121.984375 152.878906 121.738281 151.851562 C 121.488281 150.824219 121.269531 149.792969 121.082031 148.753906 C 120.890625 147.714844 120.734375 146.671875 120.605469 145.625 C 120.476562 144.578125 120.375 143.527344 120.308594 142.472656 C 120.238281 141.417969 120.199219 140.363281 120.191406 139.308594 C 120.183594 138.253906 120.203125 137.195312 120.253906 136.140625 C 120.308594 135.085938 120.390625 134.035156 120.5 132.984375 C 120.613281 131.9375 120.753906 130.890625 120.929688 129.847656 C 121.101562 128.804688 121.300781 127.769531 121.53125 126.738281 C 121.765625 125.710938 122.023438 124.6875 122.316406 123.671875 C 122.605469 122.65625 122.925781 121.652344 123.273438 120.652344 C 123.617188 119.65625 123.996094 118.671875 124.398438 117.695312 C 124.804688 116.71875 125.234375 115.757812 125.695312 114.804688 C 126.152344 113.855469 126.640625 112.917969 127.152344 111.996094 C 127.664062 111.070312 128.203125 110.164062 128.769531 109.273438 C 129.335938 108.378906 129.925781 107.503906 130.539062 106.648438 C 131.152344 105.789062 131.792969 104.949219 132.457031 104.128906 C 133.121094 103.304688 133.804688 102.503906 134.515625 101.722656 C 135.222656 100.9375 135.953125 100.179688 136.707031 99.4375 C 137.460938 98.695312 138.234375 97.980469 139.027344 97.28125 C 139.820312 96.585938 140.632812 95.914062 141.46875 95.265625 C 142.300781 94.613281 143.148438 93.988281 144.019531 93.386719 C 144.886719 92.789062 145.769531 92.210938 146.671875 91.660156 C 147.574219 91.113281 148.488281 90.589844 149.421875 90.089844 C 150.351562 89.59375 151.296875 89.121094 152.253906 88.679688 C 153.210938 88.234375 154.183594 87.820312 155.164062 87.429688 C 156.148438 87.042969 157.140625 86.683594 158.140625 86.351562 C 159.144531 86.019531 160.15625 85.71875 161.175781 85.445312 C 162.195312 85.171875 163.222656 84.929688 164.257812 84.714844 C 165.289062 84.5 166.328125 84.316406 167.375 84.160156 C 168.417969 84.003906 169.464844 83.878906 170.515625 83.785156 C 171.570312 83.691406 172.621094 83.625 173.679688 83.589844 C 174.734375 83.558594 175.789062 83.550781 176.84375 83.578125 C 177.898438 83.605469 178.953125 83.660156 180.003906 83.746094 C 181.058594 83.832031 182.105469 83.949219 183.152344 84.097656 C 184.199219 84.242188 185.238281 84.417969 186.273438 84.625 C 187.308594 84.832031 188.339844 85.066406 189.359375 85.332031 C 190.382812 85.597656 191.398438 85.890625 192.402344 86.214844 C 193.40625 86.535156 194.402344 86.886719 195.386719 87.265625 C 196.371094 87.648438 197.347656 88.054688 198.308594 88.492188 C 199.269531 88.925781 200.21875 89.390625 201.152344 89.878906 C 202.089844 90.371094 203.007812 90.886719 203.914062 91.429688 C 204.820312 91.972656 205.710938 92.539062 206.582031 93.132812 C 207.457031 93.726562 208.3125 94.347656 209.148438 94.988281 C 209.984375 95.632812 210.804688 96.296875 211.605469 96.988281 C 212.402344 97.675781 213.183594 98.390625 213.941406 99.125 C 214.699219 99.859375 215.4375 100.613281 216.152344 101.390625 C 216.867188 102.167969 217.5625 102.964844 218.230469 103.777344 C 218.902344 104.59375 219.546875 105.429688 220.167969 106.285156 C 220.789062 107.136719 221.386719 108.007812 221.960938 108.894531 C 222.53125 109.78125 223.078125 110.683594 223.597656 111.601562 C 224.117188 112.523438 224.613281 113.453125 225.078125 114.402344 C 225.546875 115.347656 225.984375 116.308594 226.398438 117.28125 C 226.808594 118.253906 227.195312 119.234375 227.550781 120.230469 C 227.90625 121.222656 228.230469 122.226562 228.53125 123.242188 C 228.828125 124.253906 229.097656 125.273438 229.335938 126.300781 C 229.578125 127.332031 229.789062 128.363281 229.96875 129.40625 C 230.148438 130.445312 230.300781 131.492188 230.417969 132.539062 C 230.539062 133.589844 230.632812 134.640625 230.691406 135.695312 C 230.75 136.746094 230.78125 137.804688 230.78125 138.859375 C 230.792969 142.492188 230.445312 146.089844 229.742188 149.652344 C 229.039062 153.21875 227.992188 156.675781 226.601562 160.035156 C 225.210938 163.390625 223.503906 166.578125 221.480469 169.59375 C 219.457031 172.613281 217.160156 175.402344 214.582031 177.960938 Z M 214.582031 177.960938 " fill-opacity="1" fill-rule="nonzero" />
    </g>
    <g clip-path="url(#5b2888186d)">
        <path fill="#ff6a00" d="M 139.230469 180.625 C 138.253906 179.773438 137.300781 178.886719 136.375 177.960938 C 135.09375 176.683594 133.878906 175.339844 132.730469 173.941406 C 131.582031 172.542969 130.503906 171.089844 129.496094 169.582031 C 128.492188 168.078125 127.5625 166.523438 126.707031 164.925781 C 125.855469 163.332031 125.082031 161.695312 124.386719 160.023438 C 123.695312 158.347656 123.085938 156.644531 122.558594 154.910156 C 122.03125 153.179688 121.59375 151.425781 121.238281 149.648438 C 120.886719 147.871094 120.621094 146.082031 120.445312 144.277344 C 120.265625 142.476562 120.175781 140.671875 120.175781 138.859375 C 120.175781 137.046875 120.265625 135.242188 120.445312 133.4375 C 120.621094 131.636719 120.886719 129.847656 121.238281 128.070312 C 121.59375 126.292969 122.03125 124.539062 122.558594 122.804688 C 123.085938 121.074219 123.695312 119.371094 124.386719 117.695312 C 125.082031 116.023438 125.855469 114.386719 126.707031 112.789062 C 127.5625 111.191406 128.492188 109.640625 129.496094 108.136719 C 130.503906 106.628906 131.582031 105.175781 132.730469 103.777344 C 133.878906 102.375 135.09375 101.035156 136.375 99.753906 C 137.65625 98.472656 138.996094 97.257812 140.394531 96.109375 C 141.796875 94.960938 143.25 93.882812 144.753906 92.878906 C 146.261719 91.871094 147.8125 90.941406 149.410156 90.085938 C 151.007812 89.234375 152.644531 88.460938 154.316406 87.765625 C 155.988281 87.074219 157.691406 86.464844 159.425781 85.9375 C 161.160156 85.414062 162.914062 84.972656 164.691406 84.621094 C 166.464844 84.265625 168.253906 84 170.058594 83.824219 C 171.859375 83.648438 173.667969 83.558594 175.480469 83.558594 C 177.289062 83.558594 179.097656 83.648438 180.898438 83.824219 C 182.703125 84 184.492188 84.265625 186.265625 84.621094 C 188.042969 84.972656 189.796875 85.414062 191.53125 85.9375 C 193.265625 86.464844 194.96875 87.074219 196.640625 87.765625 C 198.316406 88.460938 199.949219 89.234375 201.546875 90.085938 C 203.144531 90.941406 204.695312 91.871094 206.203125 92.878906 C 207.707031 93.882812 209.160156 94.960938 210.5625 96.109375 C 211.960938 97.257812 213.300781 98.472656 214.582031 99.753906 C 215.324219 100.496094 216.042969 101.257812 216.738281 102.039062 C 217.988281 93.585938 218.089844 85.121094 217.046875 76.640625 C 213.988281 74.589844 210.796875 72.78125 207.472656 71.203125 C 204.144531 69.628906 200.722656 68.308594 197.203125 67.242188 C 193.679688 66.171875 190.097656 65.371094 186.457031 64.835938 C 182.820312 64.296875 179.160156 64.03125 175.480469 64.039062 C 134.15625 64.039062 100.65625 97.535156 100.65625 138.859375 C 100.652344 142.625 100.929688 146.367188 101.492188 150.089844 C 102.058594 153.816406 102.898438 157.472656 104.015625 161.070312 C 105.132812 164.664062 106.515625 168.15625 108.164062 171.542969 C 109.8125 174.925781 111.703125 178.167969 113.84375 181.269531 C 117.261719 181.644531 120.695312 181.835938 124.132812 181.839844 C 129.199219 181.839844 134.230469 181.4375 139.230469 180.625 Z M 139.230469 180.625 " fill-opacity="1" fill-rule="nonzero" />
    </g>
    <g clip-path="url(#1fc47575f1)">
        <path fill="#146eb4" d="M 270.84375 208.539062 L 270.539062 208.125 C 264.222656 200.8125 256.464844 195.457031 248.964844 190.285156 C 245.902344 188.171875 240.457031 184.765625 236.609375 182.023438 C 231.636719 189.050781 225.632812 195.050781 218.601562 200.015625 C 221.34375 203.863281 224.746094 209.292969 226.863281 212.359375 C 232.046875 219.875 237.410156 227.613281 244.714844 233.921875 L 245.128906 234.226562 C 247.503906 235.679688 250.082031 236.390625 252.867188 236.367188 C 254.933594 236.359375 256.925781 235.984375 258.847656 235.238281 C 260.773438 234.492188 262.5 233.425781 264.027344 232.039062 L 268.542969 227.53125 L 268.652344 227.417969 C 273.460938 222.15625 274.382812 214.214844 270.84375 208.539062 Z M 270.84375 208.539062 " fill-opacity="1" fill-rule="nonzero" />
    </g>
    <path fill="#146eb4" d="M 243.128906 90.921875 C 233.941406 93.175781 224.519531 95.128906 216.183594 97.269531 C 210.6875 98.648438 209.917969 107.421875 214.597656 110.558594 C 215.734375 111.296875 216.894531 112.023438 218.070312 112.746094 L 192.152344 138.664062 C 191.972656 138.84375 191.761719 138.984375 191.527344 139.082031 C 191.289062 139.179688 191.046875 139.226562 190.789062 139.226562 C 190.535156 139.226562 190.289062 139.179688 190.050781 139.082031 C 189.816406 138.984375 189.609375 138.84375 189.425781 138.664062 L 176.355469 125.589844 C 175.933594 125.171875 175.496094 124.777344 175.039062 124.398438 C 174.578125 124.023438 174.105469 123.671875 173.613281 123.34375 C 173.117188 123.015625 172.613281 122.710938 172.089844 122.433594 C 171.566406 122.152344 171.03125 121.902344 170.484375 121.675781 C 169.9375 121.449219 169.378906 121.25 168.8125 121.078125 C 168.246094 120.90625 167.671875 120.761719 167.089844 120.648438 C 166.511719 120.53125 165.925781 120.445312 165.335938 120.386719 C 164.746094 120.328125 164.15625 120.300781 163.5625 120.300781 C 162.972656 120.300781 162.378906 120.328125 161.792969 120.386719 C 161.203125 120.445312 160.617188 120.53125 160.035156 120.648438 C 159.453125 120.761719 158.882812 120.90625 158.3125 121.078125 C 157.746094 121.25 157.191406 121.449219 156.644531 121.675781 C 156.097656 121.902344 155.5625 122.152344 155.039062 122.433594 C 154.515625 122.710938 154.007812 123.015625 153.515625 123.34375 C 153.023438 123.671875 152.546875 124.023438 152.089844 124.398438 C 151.632812 124.777344 151.191406 125.171875 150.773438 125.589844 L 134.496094 141.867188 C 134.121094 142.242188 133.785156 142.652344 133.492188 143.09375 C 133.195312 143.535156 132.945312 144 132.742188 144.488281 C 132.539062 144.980469 132.386719 145.484375 132.28125 146.003906 C 132.179688 146.527344 132.125 147.050781 132.125 147.582031 C 132.125 148.113281 132.175781 148.636719 132.28125 149.160156 C 132.382812 149.679688 132.535156 150.183594 132.738281 150.675781 C 132.941406 151.167969 133.191406 151.632812 133.484375 152.074219 C 133.777344 152.515625 134.113281 152.925781 134.488281 153.300781 C 134.863281 153.675781 135.273438 154.011719 135.710938 154.304688 C 136.152344 154.601562 136.621094 154.851562 137.109375 155.054688 C 137.597656 155.257812 138.105469 155.410156 138.625 155.515625 C 139.144531 155.621094 139.671875 155.671875 140.203125 155.671875 C 140.734375 155.671875 141.257812 155.621094 141.777344 155.519531 C 142.300781 155.414062 142.804688 155.261719 143.296875 155.0625 C 143.785156 154.859375 144.253906 154.609375 144.695312 154.316406 C 145.136719 154.019531 145.542969 153.6875 145.921875 153.3125 L 162.199219 137.03125 C 162.378906 136.851562 162.585938 136.710938 162.824219 136.613281 C 163.058594 136.515625 163.304688 136.464844 163.5625 136.464844 C 163.816406 136.464844 164.0625 136.515625 164.300781 136.613281 C 164.539062 136.710938 164.746094 136.851562 164.925781 137.03125 L 178 150.105469 C 178.417969 150.523438 178.855469 150.917969 179.316406 151.292969 C 179.773438 151.671875 180.25 152.023438 180.742188 152.351562 C 181.234375 152.679688 181.742188 152.984375 182.265625 153.261719 C 182.785156 153.542969 183.320312 153.792969 183.867188 154.019531 C 184.417969 154.246094 184.972656 154.445312 185.539062 154.617188 C 186.105469 154.789062 186.679688 154.933594 187.261719 155.050781 C 187.84375 155.164062 188.425781 155.25 189.015625 155.308594 C 189.605469 155.367188 190.199219 155.394531 190.789062 155.394531 C 191.382812 155.394531 191.972656 155.367188 192.5625 155.308594 C 193.152344 155.25 193.738281 155.164062 194.316406 155.050781 C 194.898438 154.933594 195.472656 154.789062 196.039062 154.617188 C 196.605469 154.445312 197.164062 154.246094 197.710938 154.019531 C 198.257812 153.792969 198.792969 153.542969 199.316406 153.261719 C 199.835938 152.984375 200.34375 152.679688 200.835938 152.351562 C 201.332031 152.023438 201.804688 151.671875 202.265625 151.292969 C 202.722656 150.917969 203.160156 150.523438 203.578125 150.105469 L 229.496094 124.1875 C 230.222656 125.363281 230.949219 126.523438 231.6875 127.65625 C 234.824219 132.34375 243.59375 131.570312 244.976562 126.074219 C 247.117188 117.753906 249.070312 108.316406 251.320312 99.132812 C 252.601562 93.878906 248.363281 89.640625 243.128906 90.921875 Z M 243.128906 90.921875 " fill-opacity="1" fill-rule="nonzero" />
    <g fill="#ff6a00" fill-opacity="1">
        <g transform="translate(50.587288, 294.525973)">
            <g>
                <path d="M 30.578125 -35.0625 C 30.578125 -36.269531 30.851562 -37.320312 31.40625 -38.21875 C 31.96875 -39.113281 32.8125 -39.5625 33.9375 -39.5625 C 34.894531 -39.5625 35.75 -39.375 36.5 -39 C 37.25 -38.625 37.625 -38 37.625 -37.125 C 37.625 -35.414062 37.539062 -33.023438 37.375 -29.953125 C 37.207031 -26.953125 37.125 -24.722656 37.125 -23.265625 C 37.125 -20.984375 37.207031 -17.925781 37.375 -14.09375 C 37.539062 -10.4375 37.625 -7.753906 37.625 -6.046875 C 37.625 -4.679688 37.601562 -3.664062 37.5625 -3 C 37.5625 -2.332031 37.195312 -1.675781 36.46875 -1.03125 C 35.738281 -0.382812 34.625 -0.0625 33.125 -0.0625 C 32.332031 -0.0625 31.65625 -0.195312 31.09375 -0.46875 C 30.539062 -0.738281 30.160156 -1.039062 29.953125 -1.375 C 27.992188 -3.738281 25.144531 -7.769531 21.40625 -13.46875 C 17.195312 -19.832031 13.765625 -24.703125 11.109375 -28.078125 C 11.441406 -25.078125 11.609375 -21.414062 11.609375 -17.09375 C 11.609375 -15.175781 11.578125 -12.6875 11.515625 -9.625 C 11.453125 -6.570312 11.359375 -4.570312 11.234375 -3.625 C 11.066406 -2.414062 10.703125 -1.488281 10.140625 -0.84375 C 9.578125 -0.195312 8.691406 0.125 7.484375 0.125 C 6.566406 0.125 5.890625 -0.132812 5.453125 -0.65625 C 5.015625 -1.175781 4.753906 -2.082031 4.671875 -3.375 C 4.628906 -5.070312 4.734375 -7.628906 4.984375 -11.046875 C 5.023438 -11.585938 5.085938 -12.519531 5.171875 -13.84375 C 5.253906 -15.175781 5.296875 -16.363281 5.296875 -17.40625 C 5.296875 -20.28125 5.148438 -23.566406 4.859375 -27.265625 C 4.609375 -31.335938 4.484375 -34.351562 4.484375 -36.3125 C 4.484375 -37.3125 4.847656 -38.082031 5.578125 -38.625 C 6.304688 -39.164062 7.148438 -39.4375 8.109375 -39.4375 C 8.941406 -39.4375 9.816406 -39.226562 10.734375 -38.8125 C 14.304688 -34.3125 19.148438 -27.613281 25.265625 -18.71875 L 31.140625 -9.734375 C 31.171875 -10.398438 31.1875 -11.335938 31.1875 -12.546875 C 31.1875 -14.660156 31.144531 -16.941406 31.0625 -19.390625 C 30.988281 -21.847656 30.929688 -23.515625 30.890625 -24.390625 C 30.679688 -28.429688 30.578125 -31.988281 30.578125 -35.0625 Z M 30.578125 -35.0625 " />
            </g>
        </g>
    </g>
    <g fill="#ff6a00" fill-opacity="1">
        <g transform="translate(93.945685, 294.525973)">
            <g>
                <path d="M 30.078125 -8.484375 C 30.859375 -8.484375 31.445312 -8.179688 31.84375 -7.578125 C 32.238281 -6.972656 32.4375 -6.316406 32.4375 -5.609375 C 32.4375 -4.742188 32.300781 -4.132812 32.03125 -3.78125 C 31.757812 -3.425781 31.253906 -3.0625 30.515625 -2.6875 C 28.765625 -1.851562 26.597656 -1.1875 24.015625 -0.6875 C 21.441406 -0.1875 18.675781 0.0625 15.71875 0.0625 C 12.019531 0.0625 9.304688 -0.5625 7.578125 -1.8125 C 5.847656 -3.0625 4.785156 -4.566406 4.390625 -6.328125 C 4.003906 -8.097656 3.8125 -10.421875 3.8125 -13.296875 C 3.8125 -16.367188 3.929688 -19.390625 4.171875 -22.359375 C 4.421875 -25.335938 4.859375 -29.132812 5.484375 -33.75 C 5.773438 -35.75 6.566406 -37.195312 7.859375 -38.09375 C 9.148438 -38.988281 10.566406 -39.4375 12.109375 -39.4375 C 13.390625 -39.4375 15.488281 -39.476562 18.40625 -39.5625 L 23.828125 -39.625 C 26.078125 -39.625 27.703125 -39.5625 28.703125 -39.4375 C 29.953125 -39.1875 30.875 -38.90625 31.46875 -38.59375 C 32.070312 -38.28125 32.375 -37.75 32.375 -37 C 32.375 -36.164062 32.09375 -35.351562 31.53125 -34.5625 C 30.976562 -33.769531 30.140625 -33.375 29.015625 -33.375 C 27.722656 -33.375 25.867188 -33.457031 23.453125 -33.625 C 21.046875 -33.789062 19.238281 -33.875 18.03125 -33.875 C 16.988281 -33.875 15.96875 -33.8125 14.96875 -33.6875 C 13.8125 -33.601562 12.984375 -33.457031 12.484375 -33.25 C 11.984375 -33.039062 11.691406 -32.6875 11.609375 -32.1875 C 11.023438 -27.90625 10.734375 -24.742188 10.734375 -22.703125 C 11.691406 -22.578125 12.625 -22.515625 13.53125 -22.515625 C 14.695312 -22.515625 15.945312 -22.578125 17.28125 -22.703125 C 18.613281 -22.828125 19.46875 -22.910156 19.84375 -22.953125 C 22.039062 -23.160156 23.929688 -23.265625 25.515625 -23.265625 C 26.429688 -23.265625 27.128906 -23.097656 27.609375 -22.765625 C 28.085938 -22.429688 28.328125 -21.976562 28.328125 -21.40625 C 28.328125 -20.488281 28.085938 -19.78125 27.609375 -19.28125 C 27.128906 -18.78125 26.285156 -18.40625 25.078125 -18.15625 C 23.617188 -17.863281 21.816406 -17.632812 19.671875 -17.46875 C 17.535156 -17.300781 15.445312 -17.21875 13.40625 -17.21875 C 12.707031 -17.21875 11.734375 -17.257812 10.484375 -17.34375 C 10.359375 -14.800781 10.296875 -12.453125 10.296875 -10.296875 C 10.296875 -7.335938 12.25 -5.859375 16.15625 -5.859375 C 18.238281 -5.859375 19.960938 -6.003906 21.328125 -6.296875 C 22.703125 -6.585938 24.285156 -7.003906 26.078125 -7.546875 C 27.742188 -8.171875 29.078125 -8.484375 30.078125 -8.484375 Z M 30.078125 -8.484375 " />
            </g>
        </g>
    </g>
    <g fill="#ff6a00" fill-opacity="1">
        <g transform="translate(129.630603, 294.525973)">
            <g>
                <path d="M 34 -39.5 C 34.832031 -39.5 35.46875 -39.238281 35.90625 -38.71875 C 36.34375 -38.195312 36.5625 -37.5 36.5625 -36.625 C 36.5625 -35.664062 36.3125 -34.582031 35.8125 -33.375 C 34.351562 -32.039062 32.707031 -30.269531 30.875 -28.0625 C 29.050781 -25.863281 26.890625 -23.125 24.390625 -19.84375 C 26.679688 -16.09375 28.53125 -13.269531 29.9375 -11.375 C 31.351562 -9.488281 32.707031 -8.191406 34 -7.484375 C 34.539062 -7.191406 35.1875 -6.941406 35.9375 -6.734375 C 36.894531 -6.441406 37.601562 -6.148438 38.0625 -5.859375 C 38.519531 -5.566406 38.75 -5.128906 38.75 -4.546875 C 38.75 -3.390625 38.207031 -2.53125 37.125 -1.96875 C 36.039062 -1.40625 34.726562 -1.125 33.1875 -1.125 C 31.195312 -1.125 29.234375 -2.222656 27.296875 -4.421875 C 25.359375 -6.628906 23.039062 -9.914062 20.34375 -14.28125 C 17.71875 -10.832031 15.53125 -8.035156 13.78125 -5.890625 C 12.039062 -3.753906 10.460938 -2.019531 9.046875 -0.6875 C 8.753906 -0.4375 8.335938 -0.238281 7.796875 -0.09375 C 7.253906 0.0507812 6.796875 0.125 6.421875 0.125 C 5.503906 0.125 4.722656 -0.25 4.078125 -1 C 3.441406 -1.75 3.101562 -2.519531 3.0625 -3.3125 C 3.0625 -3.4375 3.289062 -3.847656 3.75 -4.546875 C 4.207031 -5.253906 4.910156 -6.066406 5.859375 -6.984375 C 6.898438 -7.773438 8.265625 -9.1875 9.953125 -11.21875 C 11.640625 -13.257812 13.914062 -16.15625 16.78125 -19.90625 L 14.96875 -22.765625 C 13.394531 -25.265625 12.234375 -27.054688 11.484375 -28.140625 C 10.734375 -29.222656 10.023438 -30.039062 9.359375 -30.59375 C 8.691406 -31.15625 7.984375 -31.4375 7.234375 -31.4375 C 6.984375 -31.4375 6.597656 -31.363281 6.078125 -31.21875 C 5.554688 -31.082031 5.128906 -31.015625 4.796875 -31.015625 C 4.347656 -31.015625 3.9375 -31.09375 3.5625 -31.25 C 2.519531 -31.707031 2 -32.394531 2 -33.3125 C 2 -33.726562 2.082031 -34.082031 2.25 -34.375 C 2.582031 -35.125 3.273438 -35.820312 4.328125 -36.46875 C 5.390625 -37.113281 6.835938 -37.4375 8.671875 -37.4375 C 10.378906 -37.4375 11.851562 -37 13.09375 -36.125 C 14.34375 -35.25 15.5 -34.0625 16.5625 -32.5625 C 17.625 -31.070312 19.09375 -28.722656 20.96875 -25.515625 C 25.082031 -31.085938 27.992188 -34.832031 29.703125 -36.75 C 30.691406 -37.914062 31.476562 -38.664062 32.0625 -39 C 32.644531 -39.332031 33.289062 -39.5 34 -39.5 Z M 34 -39.5 " />
            </g>
        </g>
    </g>
    <g fill="#ff6a00" fill-opacity="1">
        <g transform="translate(170.743105, 294.525973)">
            <g>
                <path d="M 0.6875 -36.375 C 0.6875 -38.164062 1.992188 -39.0625 4.609375 -39.0625 C 5.734375 -39.0625 7.878906 -39.019531 11.046875 -38.9375 C 14.535156 -38.769531 17.175781 -38.6875 18.96875 -38.6875 C 20.425781 -38.6875 22.191406 -38.769531 24.265625 -38.9375 C 25.679688 -39.019531 26.578125 -39.0625 26.953125 -39.0625 C 29.242188 -38.976562 31.175781 -38.5625 32.75 -37.8125 C 33.207031 -37.601562 33.582031 -37.351562 33.875 -37.0625 C 34.164062 -36.769531 34.3125 -36.289062 34.3125 -35.625 C 34.3125 -34.707031 34.019531 -33.925781 33.4375 -33.28125 C 32.851562 -32.632812 32.144531 -32.3125 31.3125 -32.3125 C 30.40625 -32.3125 29.078125 -32.4375 27.328125 -32.6875 C 25.785156 -32.976562 24.429688 -33.125 23.265625 -33.125 C 22.148438 -33.125 21.300781 -33.101562 20.71875 -33.0625 C 20.59375 -31.695312 20.53125 -28.410156 20.53125 -23.203125 C 20.53125 -17.003906 20.71875 -10.726562 21.09375 -4.375 L 21.21875 -2.5625 C 21.21875 -0.851562 20.238281 0 18.28125 0 C 16.738281 0 15.695312 -0.363281 15.15625 -1.09375 C 14.613281 -1.820312 14.34375 -2.9375 14.34375 -4.4375 C 14.34375 -7.382812 14.257812 -11.0625 14.09375 -15.46875 C 13.925781 -19.132812 13.84375 -21.734375 13.84375 -23.265625 C 13.84375 -24.304688 13.96875 -27.488281 14.21875 -32.8125 L 6.921875 -32.75 C 4.597656 -32.75 2.976562 -32.96875 2.0625 -33.40625 C 1.144531 -33.84375 0.6875 -34.832031 0.6875 -36.375 Z M 0.6875 -36.375 " />
            </g>
        </g>
    </g>
    <g fill="#ff6a00" fill-opacity="1">
        <g transform="translate(206.989491, 294.525973)">
            <g>
                <path d="M 11.546875 -2.25 C 11.421875 -1.625 11.054688 -1.09375 10.453125 -0.65625 C 9.847656 -0.21875 9.003906 0 7.921875 0 C 7.003906 0 6.285156 -0.25 5.765625 -0.75 C 5.242188 -1.25 4.960938 -1.769531 4.921875 -2.3125 C 5.171875 -4.050781 5.296875 -6.671875 5.296875 -10.171875 C 5.296875 -12.253906 5.171875 -15.457031 4.921875 -19.78125 C 4.628906 -23.851562 4.484375 -27.472656 4.484375 -30.640625 C 4.484375 -32.335938 4.566406 -34.082031 4.734375 -35.875 C 4.734375 -36.457031 5.078125 -37.082031 5.765625 -37.75 C 6.453125 -38.414062 7.398438 -38.832031 8.609375 -39 C 12.554688 -39.414062 17.398438 -39.625 23.140625 -39.625 L 25.140625 -39.625 C 26.640625 -39.625 28.101562 -39.351562 29.53125 -38.8125 C 30.96875 -38.269531 31.6875 -37.332031 31.6875 -36 C 31.6875 -35.125 31.476562 -34.4375 31.0625 -33.9375 C 30.65625 -33.4375 29.890625 -33.1875 28.765625 -33.1875 C 28.222656 -33.1875 27.597656 -33.226562 26.890625 -33.3125 C 26.179688 -33.394531 25.679688 -33.457031 25.390625 -33.5 C 23.804688 -33.75 22.582031 -33.875 21.71875 -33.875 C 16.882812 -33.875 13.242188 -33.539062 10.796875 -32.875 C 10.796875 -31.507812 10.835938 -29.285156 10.921875 -26.203125 L 10.984375 -22.21875 C 13.140625 -22.21875 15.070312 -22.304688 16.78125 -22.484375 C 18.488281 -22.671875 19.46875 -22.785156 19.71875 -22.828125 C 21.875 -23.078125 23.304688 -23.203125 24.015625 -23.203125 C 25.015625 -23.203125 25.859375 -22.984375 26.546875 -22.546875 C 27.234375 -22.117188 27.578125 -21.445312 27.578125 -20.53125 C 27.578125 -18.445312 26.117188 -17.40625 23.203125 -17.40625 C 22.503906 -17.40625 21.882812 -17.382812 21.34375 -17.34375 C 20.800781 -17.300781 20.34375 -17.257812 19.96875 -17.21875 C 18.46875 -17.050781 17.28125 -16.96875 16.40625 -16.96875 C 14.488281 -16.96875 12.867188 -16.90625 11.546875 -16.78125 C 11.546875 -15.238281 11.609375 -13.617188 11.734375 -11.921875 C 11.734375 -11.378906 11.765625 -10.546875 11.828125 -9.421875 C 11.890625 -8.296875 11.921875 -7.273438 11.921875 -6.359375 C 11.921875 -5.566406 11.898438 -4.835938 11.859375 -4.171875 C 11.816406 -3.515625 11.710938 -2.875 11.546875 -2.25 Z M 11.546875 -2.25 " />
            </g>
        </g>
    </g>
    <g fill="#ff6a00" fill-opacity="1">
        <g transform="translate(240.241345, 294.525973)">
            <g>
                <path d="M 21.65625 -39.6875 C 24.4375 -39.6875 26.96875 -39.34375 29.25 -38.65625 C 31.539062 -37.96875 33.414062 -36.957031 34.875 -35.625 C 37.5 -33.25 39.335938 -30.65625 40.390625 -27.84375 C 41.453125 -25.039062 41.984375 -21.457031 41.984375 -17.09375 C 41.984375 -16.175781 41.867188 -15.34375 41.640625 -14.59375 C 41.410156 -13.84375 41.046875 -12.890625 40.546875 -11.734375 C 39.929688 -10.441406 39.5625 -9.421875 39.4375 -8.671875 C 38.601562 -7.210938 37.238281 -5.816406 35.34375 -4.484375 C 33.445312 -3.160156 31.394531 -2.082031 29.1875 -1.25 C 26.988281 -0.414062 25.054688 0 23.390625 0 C 15.367188 0 9.648438 -2.742188 6.234375 -8.234375 C 5.273438 -9.773438 4.535156 -11.375 4.015625 -13.03125 C 3.503906 -14.695312 3.25 -16.320312 3.25 -17.90625 C 3.25 -22.144531 4.003906 -25.832031 5.515625 -28.96875 C 7.035156 -32.113281 9.148438 -34.5625 11.859375 -36.3125 C 13.472656 -37.269531 15.164062 -38.070312 16.9375 -38.71875 C 18.707031 -39.363281 20.28125 -39.6875 21.65625 -39.6875 Z M 9.734375 -17.71875 C 9.734375 -15.46875 10.242188 -13.613281 11.265625 -12.15625 C 12.285156 -10.707031 13.851562 -9.128906 15.96875 -7.421875 C 17.71875 -6.753906 18.90625 -6.328125 19.53125 -6.140625 C 20.15625 -5.953125 20.863281 -5.859375 21.65625 -5.859375 C 25.851562 -5.859375 29.195312 -7.003906 31.6875 -9.296875 C 34.1875 -11.585938 35.4375 -14.726562 35.4375 -18.71875 C 35.4375 -21.875 35.082031 -24.367188 34.375 -26.203125 C 33.664062 -28.035156 32.398438 -29.679688 30.578125 -31.140625 C 29.617188 -31.921875 28.398438 -32.5 26.921875 -32.875 C 25.441406 -33.25 23.851562 -33.4375 22.15625 -33.4375 C 19.570312 -33.4375 17.34375 -32.675781 15.46875 -31.15625 C 13.601562 -29.644531 12.179688 -27.679688 11.203125 -25.265625 C 10.222656 -22.859375 9.734375 -20.34375 9.734375 -17.71875 Z M 9.734375 -17.71875 " />
            </g>
        </g>
    </g>
    <g fill="#ff6a00" fill-opacity="1">
        <g transform="translate(286.719034, 294.525973)">
            <g>
                <path d="M 0.6875 -36.375 C 0.6875 -38.164062 1.992188 -39.0625 4.609375 -39.0625 C 5.734375 -39.0625 7.878906 -39.019531 11.046875 -38.9375 C 14.535156 -38.769531 17.175781 -38.6875 18.96875 -38.6875 C 20.425781 -38.6875 22.191406 -38.769531 24.265625 -38.9375 C 25.679688 -39.019531 26.578125 -39.0625 26.953125 -39.0625 C 29.242188 -38.976562 31.175781 -38.5625 32.75 -37.8125 C 33.207031 -37.601562 33.582031 -37.351562 33.875 -37.0625 C 34.164062 -36.769531 34.3125 -36.289062 34.3125 -35.625 C 34.3125 -34.707031 34.019531 -33.925781 33.4375 -33.28125 C 32.851562 -32.632812 32.144531 -32.3125 31.3125 -32.3125 C 30.40625 -32.3125 29.078125 -32.4375 27.328125 -32.6875 C 25.785156 -32.976562 24.429688 -33.125 23.265625 -33.125 C 22.148438 -33.125 21.300781 -33.101562 20.71875 -33.0625 C 20.59375 -31.695312 20.53125 -28.410156 20.53125 -23.203125 C 20.53125 -17.003906 20.71875 -10.726562 21.09375 -4.375 L 21.21875 -2.5625 C 21.21875 -0.851562 20.238281 0 18.28125 0 C 16.738281 0 15.695312 -0.363281 15.15625 -1.09375 C 14.613281 -1.820312 14.34375 -2.9375 14.34375 -4.4375 C 14.34375 -7.382812 14.257812 -11.0625 14.09375 -15.46875 C 13.925781 -19.132812 13.84375 -21.734375 13.84375 -23.265625 C 13.84375 -24.304688 13.96875 -27.488281 14.21875 -32.8125 L 6.921875 -32.75 C 4.597656 -32.75 2.976562 -32.96875 2.0625 -33.40625 C 1.144531 -33.84375 0.6875 -34.832031 0.6875 -36.375 Z M 0.6875 -36.375 " />
            </g>
        </g>
    </g>
</svg>