<!-- https://www.mdjahidulislamsujan.com -->

<svg viewBox="0 0 37 37" width="256" height="256" fill="#000000" shape-rendering="crispEdges" xmlns="http://www.w3.org/2000/svg" version="1.1">
    <path fill="#ffffff" d="M0,0V37H37V0H0Z" />
    <path transform="matrix(1,0,0,1,4,4)" d="M27,28h2v1h-2v-1zM23,28h1v1h-1v-1zM19,28h3v1h-3v-1zM16,28h2v1h-2v-1zM13,28h1v1h-1v-1zM8,28h2v1h-2v-1zM0,28h7v1h-7v-1zM27,27h1v1h-1v-1zM22,27h3v1h-3v-1zM17,27h4v1h-4v-1zM12,27h1v1h-1v-1zM9,27h2v1h-2v-1zM6,27h1v1h-1v-1zM0,27h1v1h-1v-1zM28,26h1v1h-1v-1zM23,26h3v1h-3v-1zM19,26h2v1h-2v-1zM16,26h1v1h-1v-1zM8,26h7v1h-7v-1zM6,26h1v1h-1v-1zM2,26h3v1h-3v-1zM0,26h1v1h-1v-1zM26,25h3v1h-3v-1zM23,25h2v1h-2v-1zM17,25h4v1h-4v-1zM11,25h2v1h-2v-1zM9,25h1v1h-1v-1zM6,25h1v1h-1v-1zM2,25h3v1h-3v-1zM0,25h1v1h-1v-1zM28,24h1v1h-1v-1zM20,24h5v1h-5v-1zM15,24h3v1h-3v-1zM11,24h1v1h-1v-1zM8,24h2v1h-2v-1zM6,24h1v1h-1v-1zM2,24h3v1h-3v-1zM0,24h1v1h-1v-1zM24,23h2v1h-2v-1zM20,23h1v1h-1v-1zM16,23h2v1h-2v-1zM10,23h3v1h-3v-1zM6,23h1v1h-1v-1zM0,23h1v1h-1v-1zM27,22h2v1h-2v-1zM24,22h2v1h-2v-1zM22,22h1v1h-1v-1zM18,22h3v1h-3v-1zM16,22h1v1h-1v-1zM13,22h1v1h-1v-1zM9,22h2v1h-2v-1zM0,22h7v1h-7v-1zM26,21h3v1h-3v-1zM24,21h1v1h-1v-1zM19,21h2v1h-2v-1zM16,21h1v1h-1v-1zM14,21h1v1h-1v-1zM8,21h5v1h-5v-1zM20,20h5v1h-5v-1zM14,20h4v1h-4v-1zM12,20h1v1h-1v-1zM6,20h5v1h-5v-1zM3,20h2v1h-2v-1zM0,20h1v1h-1v-1zM27,19h1v1h-1v-1zM25,19h1v1h-1v-1zM20,19h2v1h-2v-1zM17,19h1v1h-1v-1zM13,19h3v1h-3v-1zM10,19h1v1h-1v-1zM7,19h2v1h-2v-1zM1,19h1v1h-1v-1zM27,18h2v1h-2v-1zM20,18h5v1h-5v-1zM14,18h1v1h-1v-1zM12,18h1v1h-1v-1zM10,18h1v1h-1v-1zM8,18h1v1h-1v-1zM2,18h5v1h-5v-1zM0,18h1v1h-1v-1zM28,17h1v1h-1v-1zM25,17h2v1h-2v-1zM22,17h1v1h-1v-1zM20,17h1v1h-1v-1zM16,17h3v1h-3v-1zM11,17h3v1h-3v-1zM7,17h3v1h-3v-1zM1,17h2v1h-2v-1zM27,16h2v1h-2v-1zM25,16h1v1h-1v-1zM19,16h5v1h-5v-1zM15,16h3v1h-3v-1zM12,16h1v1h-1v-1zM10,16h1v1h-1v-1zM6,16h3v1h-3v-1zM2,16h2v1h-2v-1zM27,15h1v1h-1v-1zM22,15h4v1h-4v-1zM16,15h4v1h-4v-1zM9,15h2v1h-2v-1zM7,15h1v1h-1v-1zM2,15h1v1h-1v-1zM27,14h2v1h-2v-1zM24,14h2v1h-2v-1zM21,14h1v1h-1v-1zM18,14h1v1h-1v-1zM11,14h3v1h-3v-1zM8,14h2v1h-2v-1zM5,14h2v1h-2v-1zM3,14h1v1h-1v-1zM0,14h2v1h-2v-1zM28,13h1v1h-1v-1zM25,13h1v1h-1v-1zM20,13h3v1h-3v-1zM14,13h2v1h-2v-1zM9,13h3v1h-3v-1zM7,13h1v1h-1v-1zM1,13h4v1h-4v-1zM27,12h2v1h-2v-1zM25,12h1v1h-1v-1zM20,12h4v1h-4v-1zM14,12h4v1h-4v-1zM10,12h2v1h-2v-1zM8,12h1v1h-1v-1zM6,12h1v1h-1v-1zM0,12h4v1h-4v-1zM27,11h1v1h-1v-1zM21,11h2v1h-2v-1zM16,11h3v1h-3v-1zM13,11h2v1h-2v-1zM9,11h3v1h-3v-1zM4,11h1v1h-1v-1zM2,11h1v1h-1v-1zM26,10h3v1h-3v-1zM24,10h1v1h-1v-1zM21,10h2v1h-2v-1zM14,10h4v1h-4v-1zM10,10h3v1h-3v-1zM6,10h3v1h-3v-1zM4,10h1v1h-1v-1zM0,10h2v1h-2v-1zM28,9h1v1h-1v-1zM25,9h1v1h-1v-1zM20,9h3v1h-3v-1zM15,9h3v1h-3v-1zM9,9h5v1h-5v-1zM1,9h4v1h-4v-1zM27,8h1v1h-1v-1zM24,8h1v1h-1v-1zM19,8h2v1h-2v-1zM16,8h2v1h-2v-1zM12,8h1v1h-1v-1zM9,8h1v1h-1v-1zM6,8h1v1h-1v-1zM4,8h1v1h-1v-1zM2,8h1v1h-1v-1zM0,8h1v1h-1v-1zM19,7h1v1h-1v-1zM17,7h1v1h-1v-1zM15,7h1v1h-1v-1zM11,7h1v1h-1v-1zM9,7h1v1h-1v-1zM22,6h7v1h-7v-1zM20,6h1v1h-1v-1zM18,6h1v1h-1v-1zM16,6h1v1h-1v-1zM14,6h1v1h-1v-1zM12,6h1v1h-1v-1zM10,6h1v1h-1v-1zM8,6h1v1h-1v-1zM0,6h7v1h-7v-1zM28,5h1v1h-1v-1zM22,5h1v1h-1v-1zM18,5h3v1h-3v-1zM14,5h3v1h-3v-1zM9,5h4v1h-4v-1zM6,5h1v1h-1v-1zM0,5h1v1h-1v-1zM28,4h1v1h-1v-1zM24,4h3v1h-3v-1zM22,4h1v1h-1v-1zM16,4h4v1h-4v-1zM13,4h1v1h-1v-1zM8,4h4v1h-4v-1zM6,4h1v1h-1v-1zM2,4h3v1h-3v-1zM0,4h1v1h-1v-1zM28,3h1v1h-1v-1zM24,3h3v1h-3v-1zM22,3h1v1h-1v-1zM19,3h1v1h-1v-1zM16,3h1v1h-1v-1zM13,3h1v1h-1v-1zM9,3h2v1h-2v-1zM6,3h1v1h-1v-1zM2,3h3v1h-3v-1zM0,3h1v1h-1v-1zM28,2h1v1h-1v-1zM24,2h3v1h-3v-1zM22,2h1v1h-1v-1zM20,2h1v1h-1v-1zM18,2h1v1h-1v-1zM15,2h1v1h-1v-1zM12,2h1v1h-1v-1zM9,2h1v1h-1v-1zM6,2h1v1h-1v-1zM2,2h3v1h-3v-1zM0,2h1v1h-1v-1zM28,1h1v1h-1v-1zM22,1h1v1h-1v-1zM17,1h4v1h-4v-1zM11,1h3v1h-3v-1zM8,1h2v1h-2v-1zM6,1h1v1h-1v-1zM0,1h1v1h-1v-1zM22,0h7v1h-7v-1zM17,0h3v1h-3v-1zM14,0h1v1h-1v-1zM10,0h3v1h-3v-1zM0,0h7v1h-7v-1z" />
</svg>